<svg width="48" height="48" viewBox="0 0 48 48" fill="none" xmlns="http://www.w3.org/2000/svg">
<g clip-path="url(#clip0_228_991)">
<path d="M47.25 30C47.0511 30 46.8603 30.079 46.7197 30.2197C46.579 30.3603 46.5 30.5511 46.5 30.75C46.5 30.9489 46.421 31.1397 46.2803 31.2803C46.1397 31.421 45.9489 31.5 45.75 31.5H35.25C35.0511 31.5 34.8603 31.421 34.7197 31.2803C34.579 31.1397 34.5 30.9489 34.5 30.75V26.25C34.5 26.0511 34.579 25.8603 34.7197 25.7197C34.8603 25.579 35.0511 25.5 35.25 25.5C35.4489 25.5 35.6397 25.421 35.7803 25.2803C35.921 25.1397 36 24.9489 36 24.75C36 24.5511 35.921 24.3603 35.7803 24.2197C35.6397 24.079 35.4489 24 35.25 24C34.6947 24.002 34.16 24.2105 33.75 24.585C33.34 24.2105 32.8053 24.002 32.25 24H9C8.80109 24 8.61032 23.921 8.46967 23.7803C8.32902 23.6397 8.25 23.4489 8.25 23.25V18.75C8.25 18.5511 8.32902 18.3603 8.46967 18.2197C8.61032 18.079 8.80109 18 9 18H21.75C21.9489 18 22.1397 17.921 22.2803 17.7803C22.421 17.6397 22.5 17.4489 22.5 17.25C22.5 17.0511 22.421 16.8603 22.2803 16.7197C22.1397 16.579 21.9489 16.5 21.75 16.5H15.75C15.5511 16.5 15.3603 16.421 15.2197 16.2803C15.079 16.1397 15 15.9489 15 15.75V11.25C15 11.0511 15.079 10.8603 15.2197 10.7197C15.3603 10.579 15.5511 10.5 15.75 10.5H17.25C17.4489 10.5 17.6397 10.421 17.7803 10.2803C17.921 10.1397 18 9.94891 18 9.75C18 9.55109 17.921 9.36032 17.7803 9.21967C17.6397 9.07902 17.4489 9 17.25 9H15.75C15.1947 9.00195 14.66 9.21049 14.25 9.585C13.84 9.21049 13.3053 9.00195 12.75 9H2.25C1.65326 9 1.08097 9.23705 0.65901 9.65901C0.237053 10.081 0 10.6533 0 11.25L0 15.75C0.00195275 16.3053 0.210486 16.84 0.585 17.25C0.210486 17.66 0.00195275 18.1947 0 18.75L0 23.25C0.00195275 23.8053 0.210486 24.34 0.585 24.75C0.210486 25.16 0.00195275 25.6947 0 26.25L0 30.75C0.00195275 31.3053 0.210486 31.84 0.585 32.25C0.210486 32.66 0.00195275 33.1947 0 33.75L0 38.25C0.00195275 38.8053 0.210486 39.34 0.585 39.75C0.210486 40.16 0.00195275 40.6947 0 41.25L0 45.75C0 46.3467 0.237053 46.919 0.65901 47.341C1.08097 47.7629 1.65326 48 2.25 48H12.75C13.3053 47.998 13.84 47.7895 14.25 47.415C14.66 47.7895 15.1947 47.998 15.75 48H32.25C32.8053 47.998 33.34 47.7895 33.75 47.415C34.16 47.7895 34.6947 47.998 35.25 48H45.75C46.3467 48 46.919 47.7629 47.341 47.341C47.7629 46.919 48 46.3467 48 45.75V41.25C47.998 40.6947 47.7895 40.16 47.415 39.75C47.7895 39.34 47.998 38.8053 48 38.25V33.75C47.998 33.1947 47.7895 32.66 47.415 32.25C47.7895 31.84 47.998 31.3053 48 30.75C48 30.5511 47.921 30.3603 47.7803 30.2197C47.6397 30.079 47.4489 30 47.25 30ZM45.75 33C45.9489 33 46.1397 33.079 46.2803 33.2197C46.421 33.3603 46.5 33.5511 46.5 33.75V38.25C46.5 38.4489 46.421 38.6397 46.2803 38.7803C46.1397 38.921 45.9489 39 45.75 39H42C41.8011 39 41.6103 38.921 41.4697 38.7803C41.329 38.6397 41.25 38.4489 41.25 38.25V33.75C41.25 33.5511 41.329 33.3603 41.4697 33.2197C41.6103 33.079 41.8011 33 42 33H45.75ZM39 33C39.1989 33 39.3897 33.079 39.5303 33.2197C39.671 33.3603 39.75 33.5511 39.75 33.75V38.25C39.75 38.4489 39.671 38.6397 39.5303 38.7803C39.3897 38.921 39.1989 39 39 39H28.5C28.3011 39 28.1103 38.921 27.9697 38.7803C27.829 38.6397 27.75 38.4489 27.75 38.25V33.75C27.75 33.5511 27.829 33.3603 27.9697 33.2197C28.1103 33.079 28.3011 33 28.5 33H39ZM32.25 25.5C32.4489 25.5 32.6397 25.579 32.7803 25.7197C32.921 25.8603 33 26.0511 33 26.25V30.75C33 30.9489 32.921 31.1397 32.7803 31.2803C32.6397 31.421 32.4489 31.5 32.25 31.5H21.75C21.5511 31.5 21.3603 31.579 21.2197 31.7197C21.079 31.8603 21 32.0511 21 32.25C21 32.4489 21.079 32.6397 21.2197 32.7803C21.3603 32.921 21.5511 33 21.75 33H25.5C25.6989 33 25.8897 33.079 26.0303 33.2197C26.171 33.3603 26.25 33.5511 26.25 33.75V38.25C26.25 38.4489 26.171 38.6397 26.0303 38.7803C25.8897 38.921 25.6989 39 25.5 39H9C8.80109 39 8.61032 38.921 8.46967 38.7803C8.32902 38.6397 8.25 38.4489 8.25 38.25V33.75C8.25 33.5511 8.32902 33.3603 8.46967 33.2197C8.61032 33.079 8.80109 33 9 33H18.75C18.9489 33 19.1397 32.921 19.2803 32.7803C19.421 32.6397 19.5 32.4489 19.5 32.25C19.5 32.0511 19.421 31.8603 19.2803 31.7197C19.1397 31.579 18.9489 31.5 18.75 31.5H15.75C15.5511 31.5 15.3603 31.421 15.2197 31.2803C15.079 31.1397 15 30.9489 15 30.75V26.25C15 26.0511 15.079 25.8603 15.2197 25.7197C15.3603 25.579 15.5511 25.5 15.75 25.5H32.25ZM1.5 38.25V33.75C1.5 33.5511 1.57902 33.3603 1.71967 33.2197C1.86032 33.079 2.05109 33 2.25 33H6C6.19891 33 6.38968 33.079 6.53033 33.2197C6.67098 33.3603 6.75 33.5511 6.75 33.75V38.25C6.75 38.4489 6.67098 38.6397 6.53033 38.7803C6.38968 38.921 6.19891 39 6 39H2.25C2.05109 39 1.86032 38.921 1.71967 38.7803C1.57902 38.6397 1.5 38.4489 1.5 38.25ZM12.75 25.5C12.9489 25.5 13.1397 25.579 13.2803 25.7197C13.421 25.8603 13.5 26.0511 13.5 26.25V30.75C13.5 30.9489 13.421 31.1397 13.2803 31.2803C13.1397 31.421 12.9489 31.5 12.75 31.5H2.25C2.05109 31.5 1.86032 31.421 1.71967 31.2803C1.57902 31.1397 1.5 30.9489 1.5 30.75V26.25C1.5 26.0511 1.57902 25.8603 1.71967 25.7197C1.86032 25.579 2.05109 25.5 2.25 25.5H12.75ZM1.5 23.25V18.75C1.5 18.5511 1.57902 18.3603 1.71967 18.2197C1.86032 18.079 2.05109 18 2.25 18H6C6.19891 18 6.38968 18.079 6.53033 18.2197C6.67098 18.3603 6.75 18.5511 6.75 18.75V23.25C6.75 23.4489 6.67098 23.6397 6.53033 23.7803C6.38968 23.921 6.19891 24 6 24H2.25C2.05109 24 1.86032 23.921 1.71967 23.7803C1.57902 23.6397 1.5 23.4489 1.5 23.25ZM1.5 11.25C1.5 11.0511 1.57902 10.8603 1.71967 10.7197C1.86032 10.579 2.05109 10.5 2.25 10.5H12.75C12.9489 10.5 13.1397 10.579 13.2803 10.7197C13.421 10.8603 13.5 11.0511 13.5 11.25V15.75C13.5 15.9489 13.421 16.1397 13.2803 16.2803C13.1397 16.421 12.9489 16.5 12.75 16.5H2.25C2.05109 16.5 1.86032 16.421 1.71967 16.2803C1.57902 16.1397 1.5 15.9489 1.5 15.75V11.25ZM12.75 46.5H2.25C2.05109 46.5 1.86032 46.421 1.71967 46.2803C1.57902 46.1397 1.5 45.9489 1.5 45.75V41.25C1.5 41.0511 1.57902 40.8603 1.71967 40.7197C1.86032 40.579 2.05109 40.5 2.25 40.5H12.75C12.9489 40.5 13.1397 40.579 13.2803 40.7197C13.421 40.8603 13.5 41.0511 13.5 41.25V45.75C13.5 45.9489 13.421 46.1397 13.2803 46.2803C13.1397 46.421 12.9489 46.5 12.75 46.5ZM32.25 46.5H15.75C15.5511 46.5 15.3603 46.421 15.2197 46.2803C15.079 46.1397 15 45.9489 15 45.75V41.25C15 41.0511 15.079 40.8603 15.2197 40.7197C15.3603 40.579 15.5511 40.5 15.75 40.5H32.25C32.4489 40.5 32.6397 40.579 32.7803 40.7197C32.921 40.8603 33 41.0511 33 41.25V45.75C33 45.9489 32.921 46.1397 32.7803 46.2803C32.6397 46.421 32.4489 46.5 32.25 46.5ZM46.5 45.75C46.5 45.9489 46.421 46.1397 46.2803 46.2803C46.1397 46.421 45.9489 46.5 45.75 46.5H35.25C35.0511 46.5 34.8603 46.421 34.7197 46.2803C34.579 46.1397 34.5 45.9489 34.5 45.75V41.25C34.5 41.0511 34.579 40.8603 34.7197 40.7197C34.8603 40.579 35.0511 40.5 35.25 40.5H45.75C45.9489 40.5 46.1397 40.579 46.2803 40.7197C46.421 40.8603 46.5 41.0511 46.5 41.25V45.75Z" fill="white"/>
<path d="M25.35 21.4746C25.6091 22.0303 25.9996 22.5146 26.4878 22.8856C26.976 23.2565 27.5472 23.5031 28.152 23.6038C28.3734 23.6425 28.5978 23.6621 28.8225 23.6623C29.3208 23.6617 29.814 23.5623 30.2735 23.3698C30.7331 23.1774 31.15 22.8957 31.5 22.5411L34.4033 19.6378L36.6008 21.8346L36.045 22.3903C35.9044 22.531 35.8254 22.7217 35.8254 22.9206C35.8254 23.1194 35.9044 23.3102 36.045 23.4508L41.475 28.8801C42.1919 29.597 43.1642 29.9997 44.178 29.9997C45.1918 29.9997 46.1641 29.597 46.881 28.8801C47.5979 28.1632 48.0006 27.1909 48.0006 26.1771C48.0006 25.1632 47.5979 24.191 46.881 23.4741L41.4518 18.0448C41.3111 17.9042 41.1204 17.8252 40.9215 17.8252C40.7226 17.8252 40.5319 17.9042 40.3913 18.0448L39.8355 18.6006L37.6388 16.4031L40.542 13.4991C40.973 13.0656 41.2939 12.5352 41.4777 11.9522C41.6616 11.3692 41.703 10.7507 41.5986 10.1484C41.4941 9.54609 41.2468 8.9776 40.8774 8.49055C40.5081 8.0035 40.0273 7.61208 39.4755 7.34907L33.321 4.43232C33.2317 4.38754 33.1344 4.36104 33.0347 4.3544C32.935 4.34776 32.835 4.3611 32.7405 4.39364C32.646 4.42619 32.559 4.47727 32.4846 4.5439C32.4102 4.61054 32.3498 4.69137 32.307 4.78166C32.2642 4.87195 32.2399 4.96988 32.2355 5.06969C32.2311 5.1695 32.2467 5.26918 32.2814 5.36289C32.316 5.45659 32.369 5.54243 32.4373 5.61536C32.5056 5.68829 32.5878 5.74684 32.679 5.78757L38.8335 8.70282C39.169 8.86269 39.4613 9.10065 39.6858 9.39676C39.9104 9.69286 40.0607 10.0385 40.1242 10.4047C40.1877 10.7708 40.1624 11.1469 40.0506 11.5013C39.9388 11.8557 39.7436 12.1781 39.4815 12.4416L36.5783 15.3448L34.9373 13.7038C34.5017 13.2883 33.9229 13.0565 33.321 13.0565C32.7191 13.0565 32.1403 13.2883 31.7048 13.7038C31.4924 13.9161 31.324 14.1681 31.2091 14.4455C31.0942 14.7229 31.035 15.0202 31.035 15.3204C31.035 15.6207 31.0942 15.918 31.2091 16.1954C31.324 16.4728 31.4924 16.7248 31.7048 16.9371L33.3458 18.5781L30.4425 21.4806C30.1791 21.7427 29.8566 21.9378 29.5022 22.0497C29.1478 22.1615 28.7718 22.1867 28.4056 22.1233C28.0394 22.0598 27.6938 21.9095 27.3977 21.6849C27.1016 21.4603 26.8636 21.1681 26.7038 20.8326L19.725 6.09657C19.5207 5.66379 19.455 5.17851 19.5367 4.70696C19.6185 4.23542 19.8437 3.80059 20.1818 3.46182L21.4643 2.17932C21.8027 1.84127 22.2374 1.61609 22.7088 1.5346C23.1802 1.4531 23.6652 1.51928 24.0975 1.72407L29.679 4.36782C29.7683 4.41261 29.8657 4.4391 29.9654 4.44575C30.0651 4.45239 30.1651 4.43905 30.2595 4.4065C30.354 4.37396 30.441 4.32287 30.5154 4.25624C30.5899 4.18961 30.6503 4.10878 30.693 4.01849C30.7358 3.9282 30.7601 3.83027 30.7645 3.73046C30.7689 3.63065 30.7533 3.53096 30.7187 3.43726C30.684 3.34355 30.631 3.25772 30.5627 3.18479C30.4944 3.11186 30.4122 3.05331 30.321 3.01257L24.7395 0.367323C24.0273 0.0304469 23.2285 -0.0783019 22.4522 0.0559385C21.6759 0.190179 20.96 0.560859 20.4023 1.11732L19.1198 2.39907C18.5633 2.95677 18.1926 3.6727 18.0584 4.44901C17.9241 5.22532 18.0329 6.02415 18.3698 6.73632L25.35 21.4746ZM45.825 24.5368C46.0611 24.7475 46.2517 25.0042 46.3851 25.2911C46.5185 25.578 46.592 25.8892 46.601 26.2055C46.61 26.5218 46.5543 26.8366 46.4373 27.1306C46.3204 27.4247 46.1447 27.6917 45.9209 27.9155C45.6972 28.1392 45.4301 28.315 45.1361 28.4319C44.842 28.5488 44.5272 28.6045 44.2109 28.5955C43.8946 28.5866 43.5835 28.5131 43.2966 28.3797C43.0096 28.2463 42.753 28.0557 42.5423 27.8196L37.6433 22.9206L40.926 19.6378L45.825 24.5368ZM32.535 15.3201C32.5348 15.1646 32.5808 15.0126 32.667 14.8833C32.7533 14.754 32.876 14.6532 33.0196 14.5937C33.1632 14.5341 33.3213 14.5186 33.4737 14.549C33.6262 14.5794 33.7662 14.6543 33.876 14.7643L38.775 19.6633L37.6643 20.7741L32.7653 15.8751C32.6921 15.8024 32.634 15.7159 32.5945 15.6207C32.555 15.5254 32.5348 15.4232 32.535 15.3201Z" fill="white"/>
</g>
<defs>
<clipPath id="clip0_228_991">
<rect width="48" height="48" fill="white"/>
</clipPath>
</defs>
</svg>
